<svg xmlns="http://www.w3.org/2000/svg" viewBox="0 0 512 512" role="img" aria-label="Italy handbook app icon">
  <defs>
    <linearGradient id="bg" x1="0" y1="0" x2="1" y2="1">
      <stop offset="0" stop-color="#0f172a" />
      <stop offset="1" stop-color="#111827" />
    </linearGradient>
    <linearGradient id="page" x1="0" y1="0" x2="0" y2="1">
      <stop offset="0" stop-color="#f8fafc" />
      <stop offset="1" stop-color="#e2e8f0" />
    </linearGradient>
  </defs>

  <rect width="512" height="512" fill="url(#bg)" />
  <ellipse cx="256" cy="382" rx="162" ry="24" fill="#020617" opacity="0.25" />

  <g>
    <rect x="116" y="140" width="280" height="224" rx="28" fill="url(#page)" />
    <rect x="134" y="160" width="114" height="184" rx="18" fill="#e5e7eb" />
    <rect x="264" y="160" width="114" height="184" rx="18" fill="#e5e7eb" />
    <rect x="248" y="152" width="16" height="200" rx="8" fill="#cbd5f5" />
    <rect x="140" y="170" width="100" height="8" rx="4" fill="#cbd5f5" />
    <rect x="272" y="170" width="100" height="8" rx="4" fill="#cbd5f5" />
  </g>

  <g transform="translate(320 132)">
    <rect x="0" y="0" width="64" height="40" rx="12" fill="#f8fafc" stroke="#e2e8f0" stroke-width="2" />
    <rect x="8" y="8" width="14" height="24" rx="4" fill="#22c55e" />
    <rect x="26" y="8" width="12" height="24" rx="4" fill="#f8fafc" />
    <rect x="42" y="8" width="14" height="24" rx="4" fill="#ef4444" />
  </g>
</svg>
